<svg xmlns="http://www.w3.org/2000/svg" version="1.1" xmlns:xlink="http://www.w3.org/1999/xlink" xmlns:svgjs="http://svgjs.dev/svgjs" width="1500" height="939" viewBox="0 0 1500 939"><g transform="matrix(1,0,0,1,-0.9090909090909918,-1.5145161290323017)"><svg viewBox="0 0 396 248" data-background-color="#c11025" preserveAspectRatio="xMidYMid meet" height="939" width="1500" xmlns="http://www.w3.org/2000/svg" xmlns:xlink="http://www.w3.org/1999/xlink"><g id="tight-bounds" transform="matrix(1,0,0,1,0.2400000000000091,0.4000000000000057)"><svg viewBox="0 0 395.52 247.2" height="247.2" width="395.52"><g><svg></svg></g><g><svg viewBox="0 0 395.52 247.2" height="247.2" width="395.52"><g transform="matrix(1,0,0,1,75.54432,100.57435275946892)"><svg viewBox="0 0 244.43135999999998 46.051294481062136" height="46.051294481062136" width="244.43135999999998"><g><svg viewBox="0 0 408.32061073376536 76.92831512121755" height="46.051294481062136" width="244.43135999999998"><g transform="matrix(1,0,0,1,0,10.63191619982095)"><svg viewBox="0 0 244.43135999999998 55.66448272157565" height="55.66448272157565" width="244.43135999999998"><g id="textblocktransform"><svg viewBox="0 0 244.43135999999998 55.66448272157565" height="55.66448272157565" width="244.43135999999998" id="textblock"><g><svg viewBox="0 0 244.43135999999998 55.66448272157565" height="55.66448272157565" width="244.43135999999998"><g transform="matrix(1,0,0,1,0,0)"><svg width="244.43135999999998" viewBox="1.15 -39.45 223.38 50.879999999999995" height="55.66448272157565" data-palette-color="#f9fff1"><path d="M11.8-3.5L21.15-2.63Q23.5-2.4 25.28-1.75 27.05-1.1 28.05 0.19 29.05 1.48 29.05 3.63L29.05 3.63Q29.05 6.03 27.43 7.78 25.8 9.53 22.66 10.48 19.53 11.43 14.95 11.43L14.95 11.43Q8.3 11.43 4.73 9.51 1.15 7.6 1.15 4.33L1.15 4.33Q1.15 3.4 1.38 2.65 1.6 1.9 1.93 1.4L1.93 1.4 7.95 2.27Q7.8 2.48 7.65 2.91 7.5 3.35 7.5 3.98L7.5 3.98Q7.5 5.53 9.59 6.21 11.68 6.9 15.15 6.9L15.15 6.9Q17.7 6.9 19.41 6.55 21.13 6.2 22.01 5.55 22.9 4.9 22.9 4.03L22.9 4.03Q22.9 2.73 21.73 2.35 20.55 1.98 18.93 1.85L18.93 1.85 8.85 0.93Q6.15 0.65 4.41-0.68 2.68-2 2.68-4.17L2.68-4.17Q2.68-5.5 3.39-6.63 4.1-7.75 5.03-8.51 5.95-9.28 6.6-9.45L6.6-9.45 10.35-7.6Q9.83-7.53 9.11-6.93 8.4-6.33 8.4-5.5L8.4-5.5Q8.4-4.73 9.1-4.21 9.8-3.7 11.8-3.5L11.8-3.5ZM23.4-20.15L24.13-26.55 30.03-26.55 27.63-16.25Q26.95-13.35 25.45-11.05 23.95-8.75 21.45-7.43 18.95-6.1 15.15-6.1L15.15-6.1Q11.2-6.1 8.34-7.39 5.48-8.68 3.93-11.01 2.38-13.35 2.38-16.4L2.38-16.4Q2.38-19.53 3.96-21.91 5.55-24.3 8.34-25.65 11.13-27 14.65-27L14.65-27Q17.5-27 19.78-26.06 22.05-25.13 23.41-23.63 24.78-22.13 24.88-20.43L24.88-20.43 23.4-20.15ZM15.13-11.18L15.13-11.18Q17.05-11.18 18.45-11.8 19.85-12.43 20.63-13.61 21.4-14.8 21.4-16.5L21.4-16.5Q21.4-18.18 20.63-19.38 19.85-20.58 18.45-21.21 17.05-21.85 15.15-21.85L15.15-21.85Q13.3-21.85 11.88-21.2 10.45-20.55 9.64-19.34 8.83-18.13 8.83-16.45L8.83-16.45Q8.83-14.78 9.61-13.59 10.4-12.4 11.81-11.79 13.23-11.18 15.13-11.18ZM46.47 0.53L46.47 0.53Q42.27 0.53 39.07-1.24 35.87-3 34.06-6.13 32.25-9.25 32.25-13.28L32.25-13.28Q32.25-17.32 34.06-20.41 35.87-23.5 39.07-25.25 42.27-27 46.47-27L46.47-27Q50.67-27 53.87-25.25 57.07-23.5 58.89-20.41 60.7-17.32 60.7-13.28L60.7-13.28Q60.7-9.25 58.89-6.13 57.07-3 53.87-1.24 50.67 0.53 46.47 0.53ZM46.47-4.85L46.47-4.85Q48.75-4.85 50.45-5.9 52.15-6.95 53.1-8.84 54.05-10.73 54.05-13.28L54.05-13.28Q54.05-15.83 53.1-17.69 52.15-19.55 50.45-20.58 48.75-21.6 46.47-21.6L46.47-21.6Q44.22-21.6 42.51-20.58 40.8-19.55 39.85-17.69 38.9-15.83 38.9-13.28L38.9-13.28Q38.9-10.73 39.85-8.84 40.8-6.95 42.51-5.9 44.22-4.85 46.47-4.85ZM79.17 0.53L79.17 0.53Q74.97 0.53 71.77-1.24 68.57-3 66.76-6.13 64.95-9.25 64.95-13.28L64.95-13.28Q64.95-17.32 66.76-20.41 68.57-23.5 71.77-25.25 74.97-27 79.17-27L79.17-27Q83.37-27 86.57-25.25 89.77-23.5 91.58-20.41 93.4-17.32 93.4-13.28L93.4-13.28Q93.4-9.25 91.58-6.13 89.77-3 86.57-1.24 83.37 0.53 79.17 0.53ZM79.17-4.85L79.17-4.85Q81.45-4.85 83.15-5.9 84.85-6.95 85.8-8.84 86.75-10.73 86.75-13.28L86.75-13.28Q86.75-15.83 85.8-17.69 84.85-19.55 83.15-20.58 81.45-21.6 79.17-21.6L79.17-21.6Q76.92-21.6 75.21-20.58 73.5-19.55 72.55-17.69 71.6-15.83 71.6-13.28L71.6-13.28Q71.6-10.73 72.55-8.84 73.5-6.95 75.21-5.9 76.92-4.85 79.17-4.85ZM109.84 0.55L109.84 0.55Q106.57 0.55 103.78-1.04 100.99-2.63 99.32-5.73 97.64-8.83 97.64-13.35L97.64-13.35Q97.64-17.75 99.36-20.8 101.07-23.85 103.86-25.43 106.64-27 109.84-27L109.84-27Q112.97-27 115.62-25.46 118.27-23.93 119.87-21.2 121.47-18.48 121.47-14.95L121.47-14.95Q121.47-14.85 121.47-14.75 121.47-14.65 121.47-14.55L121.47-14.55 118.22-14.48Q118.22-14.55 118.22-14.64 118.22-14.73 118.22-14.8L118.22-14.8Q118.22-16.78 117.23-18.25 116.24-19.73 114.68-20.56 113.12-21.4 111.37-21.4L111.37-21.4Q108.49-21.4 106.47-19.46 104.44-17.53 104.44-13.35L104.44-13.35Q104.44-9.2 106.47-7.23 108.49-5.25 111.37-5.25L111.37-5.25Q113.19-5.25 114.74-6.13 116.29-7 117.26-8.54 118.22-10.08 118.22-12.08L118.22-12.08 121.47-11.93Q121.47-8.43 119.91-5.59 118.34-2.75 115.72-1.1 113.09 0.55 109.84 0.55ZM124.82 0L118.22 0 118.22-39.08 124.82-39.08 124.82 0ZM144.14-39.08L150.61-39.08 150.61 0 144.14 0 144.14-39.08ZM159.06 11.4L159.06 11.4Q157.89 11.4 156.96 11.29 156.04 11.18 155.81 11.08L155.81 11.08 155.81 5.95Q156.14 6.1 156.92 6.19 157.71 6.28 158.56 6.28L158.56 6.28Q159.94 6.28 160.95 5.73 161.96 5.18 162.69 4.21 163.41 3.25 163.84 1.98L163.84 1.98 164.41 0.3 155.26-26.55 162.14-26.55 168.41-4.4 167.61-4.4 173.74-26.55 180.49-26.55 171.19 1.63Q170.21 4.55 168.82 6.75 167.44 8.95 165.14 10.18 162.84 11.4 159.06 11.4ZM194.53 0L187.96 0 187.96-21.3 182.33-21.3 182.33-26.55 187.96-26.55 187.96-28.93Q187.96-31.25 188.58-33.01 189.21-34.77 190.28-36 191.36-37.23 192.75-37.99 194.13-38.75 195.72-39.1 197.31-39.45 198.88-39.45L198.88-39.45Q200.38-39.45 201.17-39.28 201.96-39.1 202.23-38.98L202.23-38.98 202.23-33.68Q201.93-33.77 201.2-33.91 200.46-34.05 199.61-34.05L199.61-34.05Q198.08-34.05 197.08-33.61 196.08-33.18 195.53-32.4 194.98-31.63 194.76-30.61 194.53-29.6 194.53-28.4L194.53-28.4 194.53-26.55 201.88-26.55 201.88-21.3 194.53-21.3 194.53 0ZM218.36 0.5L218.36 0.5Q216.93 0.5 215.46 0.23 213.98-0.05 212.76-0.8 211.53-1.55 210.78-3 210.03-4.45 210.03-6.83L210.03-6.83Q210.03-7.38 210.03-7.94 210.03-8.5 210.03-9.1L210.03-9.1 210.03-21.3 203.76-21.3 203.76-26.55 206.31-26.55Q207.61-26.55 208.36-26.66 209.11-26.78 209.46-27.2 209.81-27.63 209.92-28.54 210.03-29.45 210.03-31.08L210.03-31.08 210.03-35.3 216.63-35.3 216.63-26.55 224.53-26.55 224.53-21.3 216.63-21.3 216.63-10.65Q216.63-10.18 216.63-9.71 216.63-9.25 216.63-8.83L216.63-8.83Q216.63-6.98 217.08-5.85 217.53-4.73 219.21-4.73L219.21-4.73Q220.01-4.73 220.72-4.88 221.43-5.03 221.78-5.18L221.78-5.18 221.78-0.03Q221.31 0.15 220.41 0.33 219.51 0.5 218.36 0.5Z" opacity="1" transform="matrix(1,0,0,1,0,0)" fill="#f9fff1" class="wordmark-text-0" data-fill-palette-color="primary" id="text-0"></path></svg></g></svg></g></svg></g></svg></g><g transform="matrix(1,0,0,1,257.5724084229787,0)"><svg viewBox="0 0 150.7482023107867 76.92831512121755" height="76.92831512121755" width="150.7482023107867"><g><svg xmlns="http://www.w3.org/2000/svg" xmlns:xlink="http://www.w3.org/1999/xlink" version="1.1" x="0" y="0" viewBox="0 24.484 100 51.031" enable-background="new 0 0 100 100" xml:space="preserve" height="76.92831512121755" width="150.7482023107867" class="icon-icon-0" data-fill-palette-color="accent" id="icon-0"><g fill="#fbfff6" data-fill-palette-color="accent"><rect x="36.213" y="43.757" width="27.574" height="12.485" fill="#fbfff6" data-fill-palette-color="accent"></rect><path d="M98.611 43.757H96.174V56.242H98.611C99.375 56.242 100 55.616 100 54.852V45.145C100 44.382 99.375 43.757 98.611 43.757" fill="#fbfff6" data-fill-palette-color="accent"></path><path d="M1.389 43.757C0.625 43.757 0 44.382 0 45.146V54.853C0 55.617 0.625 56.243 1.389 56.243H3.826V43.757z" fill="#fbfff6" data-fill-palette-color="accent"></path><path d="M32.383 24.484H22.629C21.864 24.484 21.24 25.109 21.24 25.873V74.124C21.24 74.888 21.864 75.513 22.629 75.513H32.383C33.147 75.513 33.772 74.888 33.772 74.124V25.874A1.395 1.395 0 0 0 32.383 24.484" fill="#fbfff6" data-fill-palette-color="accent"></path><path d="M17.41 30.563H7.655C6.891 30.563 6.266 31.188 6.266 31.952V68.044C6.266 68.808 6.891 69.433 7.655 69.433H17.41C18.172 69.433 18.799 68.808 18.799 68.044V31.953C18.799 31.189 18.172 30.563 17.41 30.563" fill="#fbfff6" data-fill-palette-color="accent"></path><path d="M77.371 24.484H67.617C66.853 24.484 66.228 25.109 66.228 25.873V74.126C66.228 74.89 66.853 75.515 67.617 75.515H77.371C78.135 75.515 78.76 74.89 78.76 74.126V25.874C78.76 25.11 78.135 24.484 77.371 24.484" fill="#fbfff6" data-fill-palette-color="accent"></path><path d="M92.345 30.565H82.59C81.826 30.565 81.201 31.19 81.201 31.954V68.046C81.201 68.81 81.826 69.435 82.59 69.435H92.345C93.109 69.435 93.734 68.81 93.734 68.046V31.954A1.394 1.394 0 0 0 92.345 30.565" fill="#fbfff6" data-fill-palette-color="accent"></path></g></svg></g></svg></g></svg></g></svg></g><path d="M206.054 94.574L206.054 31.04 391.174 31.04 391.174 216.16 206.054 216.16 206.054 152.626 209.059 152.626 209.059 213.155 388.169 213.155 388.169 34.045 209.059 34.045 209.059 94.574Z" fill="#b6c99d" stroke="transparent" data-fill-palette-color="tertiary"></path></svg></g><defs></defs></svg><rect width="395.52" height="247.2" fill="none" stroke="none" visibility="hidden"></rect></g></svg></g></svg>